<svg xmlns="http://www.w3.org/2000/svg" width="1940" height="690" viewBox="0 0 1940 690">
  <rect width="100%" height="100%" fill="#F9FAFB" />
  <style>
    .edge { stroke: #6B7280; stroke-width: 2; }
    .edge-label { fill: #374151; font-size: 14px; font-family: "Segoe UI", sans-serif; }
    .node-text { fill: #111827; font-size: 13px; font-family: "Segoe UI", sans-serif; text-anchor: middle; dominant-baseline: middle; }
  </style>
  <line class="edge" x1="130.0" y1="400.0" x2="70.0" y2="510.0" />
  <text class="edge-label" x="100.0" y="447.0">0</text>
  <line class="edge" x1="130.0" y1="400.0" x2="190.0" y2="510.0" />
  <text class="edge-label" x="160.0" y="447.0">1</text>
  <line class="edge" x1="220.0" y1="290.0" x2="130.0" y2="400.0" />
  <text class="edge-label" x="175.0" y="337.0">0</text>
  <line class="edge" x1="220.0" y1="290.0" x2="310.0" y2="400.0" />
  <text class="edge-label" x="265.0" y="337.0">1</text>
  <line class="edge" x1="610.0" y1="400.0" x2="550.0" y2="510.0" />
  <text class="edge-label" x="580.0" y="447.0">0</text>
  <line class="edge" x1="610.0" y1="400.0" x2="670.0" y2="510.0" />
  <text class="edge-label" x="640.0" y="447.0">1</text>
  <line class="edge" x1="520.0" y1="290.0" x2="430.0" y2="400.0" />
  <text class="edge-label" x="475.0" y="337.0">0</text>
  <line class="edge" x1="520.0" y1="290.0" x2="610.0" y2="400.0" />
  <text class="edge-label" x="565.0" y="337.0">1</text>
  <line class="edge" x1="370.0" y1="180.0" x2="220.0" y2="290.0" />
  <text class="edge-label" x="295.0" y="227.0">0</text>
  <line class="edge" x1="370.0" y1="180.0" x2="520.0" y2="290.0" />
  <text class="edge-label" x="445.0" y="227.0">1</text>
  <line class="edge" x1="970.0" y1="400.0" x2="910.0" y2="510.0" />
  <text class="edge-label" x="940.0" y="447.0">0</text>
  <line class="edge" x1="970.0" y1="400.0" x2="1030.0" y2="510.0" />
  <text class="edge-label" x="1000.0" y="447.0">1</text>
  <line class="edge" x1="880.0" y1="290.0" x2="790.0" y2="400.0" />
  <text class="edge-label" x="835.0" y="337.0">0</text>
  <line class="edge" x1="880.0" y1="290.0" x2="970.0" y2="400.0" />
  <text class="edge-label" x="925.0" y="337.0">1</text>
  <line class="edge" x1="1330.0" y1="510.0" x2="1270.0" y2="620.0" />
  <text class="edge-label" x="1300.0" y="557.0">0</text>
  <line class="edge" x1="1330.0" y1="510.0" x2="1390.0" y2="620.0" />
  <text class="edge-label" x="1360.0" y="557.0">1</text>
  <line class="edge" x1="1240.0" y1="400.0" x2="1150.0" y2="510.0" />
  <text class="edge-label" x="1195.0" y="447.0">0</text>
  <line class="edge" x1="1240.0" y1="400.0" x2="1330.0" y2="510.0" />
  <text class="edge-label" x="1285.0" y="447.0">1</text>
  <line class="edge" x1="1570.0" y1="510.0" x2="1510.0" y2="620.0" />
  <text class="edge-label" x="1540.0" y="557.0">0</text>
  <line class="edge" x1="1570.0" y1="510.0" x2="1630.0" y2="620.0" />
  <text class="edge-label" x="1600.0" y="557.0">1</text>
  <line class="edge" x1="1810.0" y1="510.0" x2="1750.0" y2="620.0" />
  <text class="edge-label" x="1780.0" y="557.0">0</text>
  <line class="edge" x1="1810.0" y1="510.0" x2="1870.0" y2="620.0" />
  <text class="edge-label" x="1840.0" y="557.0">1</text>
  <line class="edge" x1="1690.0" y1="400.0" x2="1570.0" y2="510.0" />
  <text class="edge-label" x="1630.0" y="447.0">0</text>
  <line class="edge" x1="1690.0" y1="400.0" x2="1810.0" y2="510.0" />
  <text class="edge-label" x="1750.0" y="447.0">1</text>
  <line class="edge" x1="1465.0" y1="290.0" x2="1240.0" y2="400.0" />
  <text class="edge-label" x="1352.5" y="337.0">0</text>
  <line class="edge" x1="1465.0" y1="290.0" x2="1690.0" y2="400.0" />
  <text class="edge-label" x="1577.5" y="337.0">1</text>
  <line class="edge" x1="1172.5" y1="180.0" x2="880.0" y2="290.0" />
  <text class="edge-label" x="1026.2" y="227.0">0</text>
  <line class="edge" x1="1172.5" y1="180.0" x2="1465.0" y2="290.0" />
  <text class="edge-label" x="1318.8" y="227.0">1</text>
  <line class="edge" x1="771.2" y1="70.0" x2="370.0" y2="180.0" />
  <text class="edge-label" x="570.6" y="117.0">0</text>
  <line class="edge" x1="771.2" y1="70.0" x2="1172.5" y2="180.0" />
  <text class="edge-label" x="971.9" y="117.0">1</text>
  <rect x="34.0" y="490.0" width="72" height="40" rx="10" fill="#DBEAFE" stroke="#1D4ED8" stroke-width="2" />
  <text class="node-text" x="70.0" y="503.0"><tspan x="70.0" dy="0">h</tspan><tspan x="70.0" dy="15">(1)</tspan></text>
  <rect x="154.0" y="490.0" width="72" height="40" rx="10" fill="#DBEAFE" stroke="#1D4ED8" stroke-width="2" />
  <text class="node-text" x="190.0" y="503.0"><tspan x="190.0" dy="0">c</tspan><tspan x="190.0" dy="15">(1)</tspan></text>
  <circle cx="130.0" cy="400.0" r="22" fill="#E5E7EB" stroke="#374151" stroke-width="2" />
  <text class="node-text" x="130.0" y="400.0">2</text>
  <rect x="274.0" y="380.0" width="72" height="40" rx="10" fill="#DBEAFE" stroke="#1D4ED8" stroke-width="2" />
  <text class="node-text" x="310.0" y="393.0"><tspan x="310.0" dy="0">e</tspan><tspan x="310.0" dy="15">(2)</tspan></text>
  <circle cx="220.0" cy="290.0" r="22" fill="#E5E7EB" stroke="#374151" stroke-width="2" />
  <text class="node-text" x="220.0" y="290.0">4</text>
  <rect x="394.0" y="380.0" width="72" height="40" rx="10" fill="#DBEAFE" stroke="#1D4ED8" stroke-width="2" />
  <text class="node-text" x="430.0" y="393.0"><tspan x="430.0" dy="0">n</tspan><tspan x="430.0" dy="15">(2)</tspan></text>
  <rect x="514.0" y="490.0" width="72" height="40" rx="10" fill="#DBEAFE" stroke="#1D4ED8" stroke-width="2" />
  <text class="node-text" x="550.0" y="503.0"><tspan x="550.0" dy="0">g</tspan><tspan x="550.0" dy="15">(1)</tspan></text>
  <rect x="634.0" y="490.0" width="72" height="40" rx="10" fill="#DBEAFE" stroke="#1D4ED8" stroke-width="2" />
  <text class="node-text" x="670.0" y="503.0"><tspan x="670.0" dy="0">i</tspan><tspan x="670.0" dy="15">(1)</tspan></text>
  <circle cx="610.0" cy="400.0" r="22" fill="#E5E7EB" stroke="#374151" stroke-width="2" />
  <text class="node-text" x="610.0" y="400.0">2</text>
  <circle cx="520.0" cy="290.0" r="22" fill="#E5E7EB" stroke="#374151" stroke-width="2" />
  <text class="node-text" x="520.0" y="290.0">4</text>
  <circle cx="370.0" cy="180.0" r="22" fill="#E5E7EB" stroke="#374151" stroke-width="2" />
  <text class="node-text" x="370.0" y="180.0">8</text>
  <rect x="754.0" y="380.0" width="72" height="40" rx="10" fill="#DBEAFE" stroke="#1D4ED8" stroke-width="2" />
  <text class="node-text" x="790.0" y="393.0"><tspan x="790.0" dy="0">m</tspan><tspan x="790.0" dy="15">(2)</tspan></text>
  <rect x="874.0" y="490.0" width="72" height="40" rx="10" fill="#DBEAFE" stroke="#1D4ED8" stroke-width="2" />
  <text class="node-text" x="910.0" y="503.0"><tspan x="910.0" dy="0">f</tspan><tspan x="910.0" dy="15">(2)</tspan></text>
  <rect x="994.0" y="490.0" width="72" height="40" rx="10" fill="#DBEAFE" stroke="#1D4ED8" stroke-width="2" />
  <text class="node-text" x="1030.0" y="503.0"><tspan x="1030.0" dy="0">&lt;space&gt;</tspan><tspan x="1030.0" dy="15">(2)</tspan></text>
  <circle cx="970.0" cy="400.0" r="22" fill="#E5E7EB" stroke="#374151" stroke-width="2" />
  <text class="node-text" x="970.0" y="400.0">4</text>
  <circle cx="880.0" cy="290.0" r="22" fill="#E5E7EB" stroke="#374151" stroke-width="2" />
  <text class="node-text" x="880.0" y="290.0">6</text>
  <rect x="1114.0" y="490.0" width="72" height="40" rx="10" fill="#DBEAFE" stroke="#1D4ED8" stroke-width="2" />
  <text class="node-text" x="1150.0" y="503.0"><tspan x="1150.0" dy="0">a</tspan><tspan x="1150.0" dy="15">(2)</tspan></text>
  <rect x="1234.0" y="600.0" width="72" height="40" rx="10" fill="#DBEAFE" stroke="#1D4ED8" stroke-width="2" />
  <text class="node-text" x="1270.0" y="613.0"><tspan x="1270.0" dy="0">p</tspan><tspan x="1270.0" dy="15">(1)</tspan></text>
  <rect x="1354.0" y="600.0" width="72" height="40" rx="10" fill="#DBEAFE" stroke="#1D4ED8" stroke-width="2" />
  <text class="node-text" x="1390.0" y="613.0"><tspan x="1390.0" dy="0">x</tspan><tspan x="1390.0" dy="15">(1)</tspan></text>
  <circle cx="1330.0" cy="510.0" r="22" fill="#E5E7EB" stroke="#374151" stroke-width="2" />
  <text class="node-text" x="1330.0" y="510.0">2</text>
  <circle cx="1240.0" cy="400.0" r="22" fill="#E5E7EB" stroke="#374151" stroke-width="2" />
  <text class="node-text" x="1240.0" y="400.0">4</text>
  <rect x="1474.0" y="600.0" width="72" height="40" rx="10" fill="#DBEAFE" stroke="#1D4ED8" stroke-width="2" />
  <text class="node-text" x="1510.0" y="613.0"><tspan x="1510.0" dy="0">d</tspan><tspan x="1510.0" dy="15">(1)</tspan></text>
  <rect x="1594.0" y="600.0" width="72" height="40" rx="10" fill="#DBEAFE" stroke="#1D4ED8" stroke-width="2" />
  <text class="node-text" x="1630.0" y="613.0"><tspan x="1630.0" dy="0">u</tspan><tspan x="1630.0" dy="15">(1)</tspan></text>
  <circle cx="1570.0" cy="510.0" r="22" fill="#E5E7EB" stroke="#374151" stroke-width="2" />
  <text class="node-text" x="1570.0" y="510.0">2</text>
  <rect x="1714.0" y="600.0" width="72" height="40" rx="10" fill="#DBEAFE" stroke="#1D4ED8" stroke-width="2" />
  <text class="node-text" x="1750.0" y="613.0"><tspan x="1750.0" dy="0">o</tspan><tspan x="1750.0" dy="15">(1)</tspan></text>
  <rect x="1834.0" y="600.0" width="72" height="40" rx="10" fill="#DBEAFE" stroke="#1D4ED8" stroke-width="2" />
  <text class="node-text" x="1870.0" y="613.0"><tspan x="1870.0" dy="0">l</tspan><tspan x="1870.0" dy="15">(1)</tspan></text>
  <circle cx="1810.0" cy="510.0" r="22" fill="#E5E7EB" stroke="#374151" stroke-width="2" />
  <text class="node-text" x="1810.0" y="510.0">2</text>
  <circle cx="1690.0" cy="400.0" r="22" fill="#E5E7EB" stroke="#374151" stroke-width="2" />
  <text class="node-text" x="1690.0" y="400.0">4</text>
  <circle cx="1465.0" cy="290.0" r="22" fill="#E5E7EB" stroke="#374151" stroke-width="2" />
  <text class="node-text" x="1465.0" y="290.0">8</text>
  <circle cx="1172.5" cy="180.0" r="22" fill="#E5E7EB" stroke="#374151" stroke-width="2" />
  <text class="node-text" x="1172.5" y="180.0">14</text>
  <circle cx="771.2" cy="70.0" r="22" fill="#E5E7EB" stroke="#374151" stroke-width="2" />
  <text class="node-text" x="771.2" y="70.0">22</text>
</svg>